<svg version="1.1" preserveAspectRatio="none" xmlns="http://www.w3.org/2000/svg" width="500" height="500" viewBox="0 0 500 500"><rect width="100%" height="100%" fill="#070707" fill-opacity="1"/><svg viewBox="78.2368 196.1828 404.526 220.1551" width="333" height="181.2285200456831" x="83.5px" y="159.3857px" xmlns="http://www.w3.org/2000/svg" xmlns:xlink="http://www.w3.org/1999/xlink" preserveAspectRatio="none"><defs></defs><style>.companyName {fill:#F7DC5F;fill-opacity:1;}.icon1 {fill:#F7DC5F;fill-opacity:1;}.icon2 {fill:#8C7848;fill-opacity:1;}.icon3 {fill:#534538;fill-opacity:1;}.icon3-str {stroke:#534538;stroke-opacity:1;}.text {fill:#F7DC5F;fill-opacity:1;}</style><g opacity="1" transform="rotate(0 78.2368 400.3379)">
<svg width="404.526" height="16" x="78.2368" y="400.3379" version="1.1" preserveAspectRatio="none" viewBox="1.28 -28.32 928.2800000000001 36.72">
  <g transform="matrix(1 0 0 1 0 0)" class="text"><path id="id-6izo4zJp42" d="M6.28-22.42Q5.52-21.76 5.26-20.96Q5-20.16 5-19.26Q5-18.36 5.78-17.60Q6.56-16.84 7.84-16.32Q9.12-15.80 10.76-15.40Q12.40-15 14.10-14.58Q15.80-14.16 17.44-13.62Q19.08-13.08 20.36-12.24L20.36-12.24Q23.20-10.44 23.20-7.32L23.20-7.32Q23.20-3.60 20.42-1.64Q17.64 0.32 12.72 0.32L12.72 0.32Q7.16 0.32 4.24-2L4.24-2Q1.64-4.08 1.28-7.92L1.28-7.92L4.40-7.92Q4.56-5.20 7.04-3.76L7.04-3.76Q9.20-2.52 12.76-2.52L12.76-2.52Q20.20-2.52 20.20-7.20L20.20-7.20Q20.20-8.80 18.86-9.72Q17.52-10.64 15.50-11.24Q13.48-11.84 11.14-12.36Q8.80-12.88 6.78-13.70Q4.76-14.52 3.42-15.86Q2.08-17.20 2.08-19.48L2.08-19.48Q2.08-22.72 4.56-24.76Q7.04-26.80 12.04-26.80L12.04-26.80Q17.08-26.80 19.84-24.48L19.84-24.48Q22.36-22.44 22.52-19.24L22.52-19.24L19.44-19.24Q19.04-22.52 15.20-23.60L15.20-23.60Q13.84-24 11.82-24Q9.80-24 8.42-23.54Q7.04-23.08 6.28-22.42Z M40.12-2.40L40.12-2.40Q44.16-2.40 45.92-5.76L45.92-5.76L49.20-5.76Q48.16-3.04 45.90-1.36Q43.64 0.32 40.08 0.32L40.08 0.32Q35.56 0.32 32.72-2.68L32.72-2.68Q29.96-5.60 29.96-10L29.96-10Q29.96-14.44 32.60-17.32L32.60-17.32Q35.40-20.32 39.88-20.32L39.88-20.32Q44.36-20.32 47.16-17.32L47.16-17.32Q49.80-14.44 49.80-10L49.80-10L49.80-8.80L33.04-8.80Q33.36-6.04 35.24-4.24L35.24-4.24Q37.16-2.40 40.12-2.40ZM39.88-17.60L39.88-17.60Q37.12-17.60 35.24-15.88L35.24-15.88Q33.48-14.24 33.08-11.60L33.08-11.60L46.68-11.60Q46.28-14.24 44.52-15.88L44.52-15.88Q42.64-17.60 39.88-17.60Z M73.08-16.80L73.08-16.80L73.08-20L76.08-20L76.08-0.60Q76.08 3.72 73.62 5.98Q71.16 8.24 67 8.24Q62.84 8.24 60.50 6.64Q58.16 5.04 57.32 2.40L57.32 2.40L60.64 2.40Q61.92 5.52 66.48 5.52L66.48 5.52Q69.96 5.52 71.52 3.92Q73.08 2.32 73.08-0.80L73.08-0.80L73.08-3.56Q70.64 0 65.92 0L65.92 0Q61.60 0 58.88-2.96L58.88-2.96Q56.24-5.84 56.24-10.16L56.24-10.16Q56.24-14.48 58.88-17.36L58.88-17.36Q61.60-20.32 66.14-20.32Q70.68-20.32 73.08-16.80ZM66.32-2.72L66.32-2.72Q67.96-2.72 69.24-3.30Q70.52-3.88 71.44-4.88L71.44-4.88Q73.24-6.96 73.24-10.16L73.24-10.16Q73.24-13.36 71.44-15.44L71.44-15.44Q69.48-17.60 66.32-17.60L66.32-17.60Q63.08-17.60 61.12-15.44L61.12-15.44Q59.24-13.32 59.24-10.16L59.24-10.16Q59.24-7 61.12-4.88L61.12-4.88Q63.08-2.72 66.32-2.72Z M102.72 0L99.72 0L99.72-3.12Q98.64-1.68 97.08-0.68Q95.52 0.32 93.52 0.32Q91.52 0.32 90.08-0.24Q88.64-0.80 87.56-1.92L87.56-1.92Q85.08-4.36 85.08-8.36L85.08-8.36L85.08-20L88.08-20L88.08-8.44Q88.08-5.68 89.64-4.04Q91.20-2.40 93.68-2.40L93.68-2.40Q96.20-2.40 97.96-4.08L97.96-4.08Q99.72-5.80 99.72-8.48L99.72-8.48L99.72-20L102.72-20L102.72 0Z M122.28-20.32L122.48-20.32L122.48-17.32L122.12-17.32Q118.88-17.32 116.84-14.72L116.84-14.72Q114.92-12.24 114.92-8.80L114.92-8.80L114.92 0L111.92 0L111.92-20L114.92-20L114.92-15.08Q115.88-18.20 119.08-19.68L119.08-19.68Q120.40-20.32 122.28-20.32L122.28-20.32Z M144.80 0L144.80-3.20Q142.40 0.32 137.64 0.32L137.64 0.32Q133.32 0.32 130.60-2.68L130.60-2.68Q127.96-5.64 127.96-10L127.96-10Q127.96-14.36 130.60-17.32L130.60-17.32Q133.32-20.32 137.84-20.32Q142.36-20.32 144.80-16.76L144.80-16.76L144.80-20L147.80-20L147.80 0L144.80 0ZM138.04-2.40L138.04-2.40Q141.28-2.40 143.16-4.64L143.16-4.64Q144.96-6.76 144.96-10L144.96-10Q144.96-13.24 143.16-15.36L143.16-15.36Q141.28-17.60 138.04-17.60L138.04-17.60Q134.84-17.60 132.84-15.36L132.84-15.36Q130.96-13.24 130.96-10L130.96-10Q130.96-6.76 132.84-4.64L132.84-4.64Q134.84-2.40 138.04-2.40Z M157-20L160-20L160-16.88Q161.08-18.32 162.64-19.32Q164.20-20.32 166.20-20.32Q168.20-20.32 169.64-19.76Q171.08-19.20 172.16-18.08L172.16-18.08Q174.64-15.64 174.64-11.64L174.64-11.64L174.64 0L171.64 0L171.64-11.56Q171.64-14.32 170.08-15.96Q168.52-17.60 166.04-17.60L166.04-17.60Q163.52-17.60 161.76-15.92L161.76-15.92Q160-14.20 160-11.52L160-11.52L160 0L157 0L157-20Z M193.00 0.28L191.96 2.16Q192.36 2.08 192.84 2.08L192.84 2.08Q194.36 2.08 195.44 2.90Q196.52 3.72 196.52 5.16L196.52 5.16Q196.52 7.52 193.68 8.20L193.68 8.20Q192.88 8.40 191.66 8.40Q190.44 8.40 189.22 7.90Q188.00 7.40 187.24 6.76L187.24 6.76L188.00 5.44Q189.76 6.64 191.40 6.64L191.40 6.64Q193.60 6.64 193.60 5.20L193.60 5.20Q193.60 4.60 192.96 4.24Q192.32 3.88 191.54 3.88Q190.76 3.88 190.08 4.08L190.08 4.08L189.24 3.40L191.24 0.24Q187.20-0.08 184.80-3.04L184.80-3.04Q182.40-5.92 182.40-10L182.40-10Q182.40-14.40 185.08-17.32L185.08-17.32Q187.84-20.32 192.24-20.32L192.24-20.32Q195.76-20.32 198.32-18.48L198.32-18.48Q200.76-16.68 201.68-13.72L201.68-13.72L198.44-13.72Q197.76-15.44 196.28-16.52Q194.80-17.60 192.88-17.60Q190.96-17.60 189.62-17Q188.28-16.40 187.36-15.36L187.36-15.36Q185.40-13.20 185.40-10L185.40-10Q185.40-6.80 187.36-4.64L187.36-4.64Q189.36-2.40 192.64-2.40L192.64-2.40Q194.80-2.40 196.28-3.48Q197.76-4.56 198.44-6.28L198.44-6.28L201.68-6.28Q200.84-3.52 198.56-1.72Q196.28 0.08 193.00 0.28L193.00 0.28Z M225 0L225-3.20Q222.60 0.32 217.84 0.32L217.84 0.32Q213.52 0.32 210.80-2.68L210.80-2.68Q208.16-5.64 208.16-10L208.16-10Q208.16-14.36 210.80-17.32L210.80-17.32Q213.52-20.32 218.04-20.32Q222.56-20.32 225-16.76L225-16.76L225-20L228-20L228 0L225 0ZM218.24-2.40L218.24-2.40Q221.48-2.40 223.36-4.64L223.36-4.64Q225.16-6.76 225.16-10L225.16-10Q225.16-13.24 223.36-15.36L223.36-15.36Q221.48-17.60 218.24-17.60L218.24-17.60Q215.04-17.60 213.04-15.36L213.04-15.36Q211.16-13.24 211.16-10L211.16-10Q211.16-6.76 213.04-4.64L213.04-4.64Q215.04-2.40 218.24-2.40Z M235.04 5.32L237.36-3.20L241.28-3.20L237.76 5.32L235.04 5.32Z M282.64-23.60L266.16-23.60L266.16-14.72L280.88-14.72L280.88-11.80L266.16-11.80L266.16-2.88L282.64-2.88L282.64 0L263.16 0L263.16-26.48L282.64-26.48L282.64-23.60Z M305.32-14.64L302.28-14.64Q301.88-17.76 297.26-17.76Q292.64-17.76 292.64-14.88L292.64-14.88Q292.64-13.68 293.62-13.06Q294.60-12.44 296.08-12.04Q297.56-11.64 299.30-11.30Q301.04-10.96 302.52-10.34Q304.00-9.72 304.98-8.64Q305.96-7.56 305.96-5.68L305.96-5.68Q305.96-2.76 303.76-1.22Q301.56 0.32 297.80 0.32L297.80 0.32Q293.80 0.32 291.44-1.68L291.44-1.68Q289.28-3.44 289.12-6.28L289.12-6.28L292.24-6.28Q292.52-3.52 295.36-2.56L295.36-2.56Q296.40-2.24 297.42-2.24Q298.44-2.24 299.32-2.36Q300.20-2.48 301.04-2.80L301.04-2.80Q302.96-3.56 302.96-5.40L302.96-5.40Q302.96-6.64 301.98-7.30Q301.00-7.96 299.52-8.38Q298.04-8.80 296.30-9.14Q294.56-9.48 293.08-10.08Q291.60-10.68 290.62-11.72Q289.64-12.76 289.64-14.60L289.64-14.60Q289.64-17.32 291.62-18.82Q293.60-20.32 297.48-20.32L297.48-20.32Q301.16-20.32 303.28-18.56L303.28-18.56Q305.04-17.08 305.32-14.64L305.32-14.64Z M318.96 0L315.96 0L315.96-17.36L311.88-17.36L311.88-20L315.96-20L315.96-27.16L318.96-27.16L318.96-20L323.56-20L323.56-17.36L318.96-17.36L318.96 0Z M346.04 0L346.04-3.20Q343.64 0.32 338.88 0.32L338.88 0.32Q334.56 0.32 331.84-2.68L331.84-2.68Q329.20-5.64 329.20-10L329.20-10Q329.20-14.36 331.84-17.32L331.84-17.32Q334.56-20.32 339.08-20.32Q343.60-20.32 346.04-16.76L346.04-16.76L346.04-20L349.04-20L349.04 0L346.04 0ZM339.28-2.40L339.28-2.40Q342.52-2.40 344.40-4.64L344.40-4.64Q346.20-6.76 346.20-10L346.20-10Q346.20-13.24 344.40-15.36L344.40-15.36Q342.52-17.60 339.28-17.60L339.28-17.60Q336.08-17.60 334.08-15.36L334.08-15.36Q332.20-13.24 332.20-10L332.20-10Q332.20-6.76 334.08-4.64L334.08-4.64Q336.08-2.40 339.28-2.40Z M361.24-28L361.24-16.76Q363.68-20.32 368.40-20.32L368.40-20.32Q372.72-20.32 375.40-17.32L375.40-17.32Q378.08-14.36 378.08-10L378.08-10Q378.08-5.64 375.40-2.68L375.40-2.68Q372.72 0.32 368.18 0.32Q363.64 0.32 361.24-3.20L361.24-3.20L361.24 0L358.24 0L358.24-28L361.24-28ZM368.00-2.40L368.00-2.40Q371.20-2.40 373.20-4.64L373.20-4.64Q375.08-6.76 375.08-10L375.08-10Q375.08-13.24 373.20-15.36L373.20-15.36Q371.20-17.60 368.00-17.60L368.00-17.60Q364.76-17.60 362.88-15.36L362.88-15.36Q361.08-13.24 361.08-10L361.08-10Q361.08-6.76 362.88-4.64L362.88-4.64Q364.76-2.40 368.00-2.40Z M386.00 0L386.00-20L389.00-20L389.00 0L386.00 0ZM385.88-27.28L389.12-27.28L389.12-23.36L385.88-23.36L385.88-27.28Z M401.20-28L401.20 0L398.20 0L398.20-28L401.20-28Z M410.40 0L410.40-20L413.40-20L413.40 0L410.40 0ZM410.28-27.28L413.52-27.28L413.52-23.36L410.28-23.36L410.28-27.28Z M438.20 0L438.20-3.20Q435.80 0.32 431.04 0.32L431.04 0.32Q426.72 0.32 424.00-2.68L424.00-2.68Q421.36-5.64 421.36-10L421.36-10Q421.36-14.36 424.00-17.32L424.00-17.32Q426.72-20.32 431.24-20.32Q435.76-20.32 438.20-16.76L438.20-16.76L438.20-28L441.20-28L441.20 0L438.20 0ZM431.44-2.40L431.44-2.40Q434.68-2.40 436.56-4.64L436.56-4.64Q438.36-6.76 438.36-10L438.36-10Q438.36-13.24 436.56-15.36L436.56-15.36Q434.68-17.60 431.44-17.60L431.44-17.60Q428.24-17.60 426.24-15.36L426.24-15.36Q424.36-13.24 424.36-10L424.36-10Q424.36-6.76 426.24-4.64L426.24-4.64Q428.24-2.40 431.44-2.40Z M466.00 0L466.00-3.20Q463.60 0.32 458.84 0.32L458.84 0.32Q454.52 0.32 451.80-2.68L451.80-2.68Q449.16-5.64 449.16-10L449.16-10Q449.16-14.36 451.80-17.32L451.80-17.32Q454.52-20.32 459.04-20.32Q463.56-20.32 466.00-16.76L466.00-16.76L466.00-20L469.00-20L469.00 0L466.00 0ZM459.24-2.40L459.24-2.40Q462.48-2.40 464.36-4.64L464.36-4.64Q466.16-6.76 466.16-10L466.16-10Q466.16-13.24 464.36-15.36L464.36-15.36Q462.48-17.60 459.24-17.60L459.24-17.60Q456.04-17.60 454.04-15.36L454.04-15.36Q452.16-13.24 452.16-10L452.16-10Q452.16-6.76 454.04-4.64L454.04-4.64Q456.04-2.40 459.24-2.40Z M493.80 0L493.80-3.20Q491.40 0.32 486.64 0.32L486.64 0.32Q482.32 0.32 479.60-2.68L479.60-2.68Q476.96-5.64 476.96-10L476.96-10Q476.96-14.36 479.60-17.32L479.60-17.32Q482.32-20.32 486.84-20.32Q491.36-20.32 493.80-16.76L493.80-16.76L493.80-28L496.80-28L496.80 0L493.80 0ZM487.04-2.40L487.04-2.40Q490.28-2.40 492.16-4.64L492.16-4.64Q493.96-6.76 493.96-10L493.96-10Q493.96-13.24 492.16-15.36L492.16-15.36Q490.28-17.60 487.04-17.60L487.04-17.60Q483.84-17.60 481.84-15.36L481.84-15.36Q479.96-13.24 479.96-10L479.96-10Q479.96-6.76 481.84-4.64L481.84-4.64Q483.84-2.40 487.04-2.40Z M514.92-2.40L514.92-2.40Q518.96-2.40 520.72-5.76L520.72-5.76L524.00-5.76Q522.96-3.04 520.70-1.36Q518.44 0.32 514.88 0.32L514.88 0.32Q510.36 0.32 507.52-2.68L507.52-2.68Q504.76-5.60 504.76-10L504.76-10Q504.76-14.44 507.40-17.32L507.40-17.32Q510.20-20.32 514.68-20.32L514.68-20.32Q519.16-20.32 521.96-17.32L521.96-17.32Q524.60-14.44 524.60-10L524.60-10L524.60-8.80L507.84-8.80Q508.16-6.04 510.04-4.24L510.04-4.24Q511.96-2.40 514.92-2.40ZM514.68-17.60L514.68-17.60Q511.92-17.60 510.04-15.88L510.04-15.88Q508.28-14.24 507.88-11.60L507.88-11.60L521.48-11.60Q521.08-14.24 519.32-15.88L519.32-15.88Q517.44-17.60 514.68-17.60Z M553.72-2.40L553.72-2.40Q557.76-2.40 559.52-5.76L559.52-5.76L562.80-5.76Q561.76-3.04 559.50-1.36Q557.24 0.32 553.68 0.32L553.68 0.32Q549.16 0.32 546.32-2.68L546.32-2.68Q543.56-5.60 543.56-10L543.56-10Q543.56-14.44 546.20-17.32L546.20-17.32Q549-20.32 553.48-20.32L553.48-20.32Q557.96-20.32 560.76-17.32L560.76-17.32Q563.40-14.44 563.40-10L563.40-10L563.40-8.80L546.64-8.80Q546.96-6.04 548.84-4.24L548.84-4.24Q550.76-2.40 553.72-2.40ZM553.48-17.60L553.48-17.60Q550.72-17.60 548.84-15.88L548.84-15.88Q547.08-14.24 546.68-11.60L546.68-11.60L560.28-11.60Q559.88-14.24 558.12-15.88L558.12-15.88Q556.24-17.60 553.48-17.60Z M587.24-9.44L587.24 0L584.24 0L584.24-26.48L596.16-26.48Q600.36-26.48 602.84-24.16L602.84-24.16Q605.28-21.84 605.28-17.96L605.28-17.96Q605.28-14.04 602.82-11.74Q600.36-9.44 596.16-9.44L596.16-9.44L587.24-9.44ZM595.96-23.64L587.24-23.64L587.24-12.24L595.96-12.24Q599.08-12.24 600.68-13.76Q602.28-15.28 602.28-17.94Q602.28-20.60 600.68-22.12Q599.08-23.64 595.96-23.64L595.96-23.64Z M623.08-20.32L623.28-20.32L623.28-17.32L622.92-17.32Q619.68-17.32 617.64-14.72L617.64-14.72Q615.72-12.24 615.72-8.80L615.72-8.80L615.72 0L612.72 0L612.72-20L615.72-20L615.72-15.08Q616.68-18.20 619.88-19.68L619.88-19.68Q621.20-20.32 623.08-20.32L623.08-20.32Z M638.68-20.32L638.68-20.32Q643.16-20.32 645.96-17.32L645.96-17.32Q648.60-14.44 648.60-10L648.60-10Q648.60-5.56 645.96-2.68L645.96-2.68Q643.16 0.32 638.68 0.32L638.68 0.32Q634.20 0.32 631.40-2.68L631.40-2.68Q628.76-5.56 628.76-10L628.76-10Q628.76-14.44 631.40-17.32L631.40-17.32Q634.20-20.32 638.68-20.32ZM638.68-2.40L638.68-2.40Q641.92-2.40 643.80-4.64L643.80-4.64Q645.60-6.76 645.60-10L645.60-10Q645.60-13.24 643.80-15.36L643.80-15.36Q641.92-17.60 638.68-17.60L638.68-17.60Q635.44-17.60 633.56-15.36L633.56-15.36Q631.76-13.24 631.76-10L631.76-10Q631.76-6.76 633.56-4.64L633.56-4.64Q635.44-2.40 638.68-2.40Z M665.32-25.48L664.92-25.48Q662.80-25.48 661.74-24.54Q660.68-23.60 660.68-21.52L660.68-21.52L660.68-20L665.32-20L665.32-17.36L660.68-17.36L660.68 0L657.68 0L657.68-17.36L654.24-17.36L654.24-20L657.68-20L657.68-21.76Q657.68-25.04 659.64-26.68Q661.60-28.32 665.08-28.32L665.08-28.32L665.32-28.32L665.32-25.48Z M672.60 0L672.60-20L675.60-20L675.60 0L672.60 0ZM672.48-27.28L675.72-27.28L675.72-23.36L672.48-23.36L672.48-27.28Z M699.60-14.64L696.56-14.64Q696.16-17.76 691.54-17.76Q686.92-17.76 686.92-14.88L686.92-14.88Q686.92-13.68 687.90-13.06Q688.88-12.44 690.36-12.04Q691.84-11.64 693.58-11.30Q695.32-10.96 696.80-10.34Q698.28-9.72 699.26-8.64Q700.24-7.56 700.24-5.68L700.24-5.68Q700.24-2.76 698.04-1.22Q695.84 0.32 692.08 0.32L692.08 0.32Q688.08 0.32 685.72-1.68L685.72-1.68Q683.56-3.44 683.40-6.28L683.40-6.28L686.52-6.28Q686.80-3.52 689.64-2.56L689.64-2.56Q690.68-2.24 691.70-2.24Q692.72-2.24 693.60-2.36Q694.48-2.48 695.32-2.80L695.32-2.80Q697.24-3.56 697.24-5.40L697.24-5.40Q697.24-6.64 696.26-7.30Q695.28-7.96 693.80-8.38Q692.32-8.80 690.58-9.14Q688.84-9.48 687.36-10.08Q685.88-10.68 684.90-11.72Q683.92-12.76 683.92-14.60L683.92-14.60Q683.92-17.32 685.90-18.82Q687.88-20.32 691.76-20.32L691.76-20.32Q695.44-20.32 697.56-18.56L697.56-18.56Q699.32-17.08 699.60-14.64L699.60-14.64Z M722.88-14.64L719.84-14.64Q719.44-17.76 714.82-17.76Q710.20-17.76 710.20-14.88L710.20-14.88Q710.20-13.68 711.18-13.06Q712.16-12.44 713.64-12.04Q715.12-11.64 716.86-11.30Q718.60-10.96 720.08-10.34Q721.56-9.72 722.54-8.64Q723.52-7.56 723.52-5.68L723.52-5.68Q723.52-2.76 721.32-1.22Q719.12 0.32 715.36 0.32L715.36 0.32Q711.36 0.32 709.00-1.68L709.00-1.68Q706.84-3.44 706.68-6.28L706.68-6.28L709.80-6.28Q710.08-3.52 712.92-2.56L712.92-2.56Q713.96-2.24 714.98-2.24Q716.00-2.24 716.88-2.36Q717.76-2.48 718.60-2.80L718.60-2.80Q720.52-3.56 720.52-5.40L720.52-5.40Q720.52-6.64 719.54-7.30Q718.56-7.96 717.08-8.38Q715.60-8.80 713.86-9.14Q712.12-9.48 710.64-10.08Q709.16-10.68 708.18-11.72Q707.20-12.76 707.20-14.60L707.20-14.60Q707.20-17.32 709.18-18.82Q711.16-20.32 715.04-20.32L715.04-20.32Q718.72-20.32 720.84-18.56L720.84-18.56Q722.60-17.08 722.88-14.64L722.88-14.64Z M731.36 0L731.36-20L734.36-20L734.36 0L731.36 0ZM731.24-27.28L734.48-27.28L734.48-23.36L731.24-23.36L731.24-27.28Z M752.24-20.32L752.24-20.32Q756.72-20.32 759.52-17.32L759.52-17.32Q762.16-14.44 762.16-10L762.16-10Q762.16-5.56 759.52-2.68L759.52-2.68Q756.72 0.32 752.24 0.32L752.24 0.32Q747.76 0.32 744.96-2.68L744.96-2.68Q742.32-5.56 742.32-10L742.32-10Q742.32-14.44 744.96-17.32L744.96-17.32Q747.76-20.32 752.24-20.32ZM752.24-2.40L752.24-2.40Q755.48-2.40 757.36-4.64L757.36-4.64Q759.16-6.76 759.16-10L759.16-10Q759.16-13.24 757.36-15.36L757.36-15.36Q755.48-17.60 752.24-17.60L752.24-17.60Q749.00-17.60 747.12-15.36L747.12-15.36Q745.32-13.24 745.32-10L745.32-10Q745.32-6.76 747.12-4.64L747.12-4.64Q749.00-2.40 752.24-2.40Z M770.12-20L773.12-20L773.12-16.88Q774.20-18.32 775.76-19.32Q777.32-20.32 779.32-20.32Q781.32-20.32 782.76-19.76Q784.20-19.20 785.28-18.08L785.28-18.08Q787.76-15.64 787.76-11.64L787.76-11.64L787.76 0L784.76 0L784.76-11.56Q784.76-14.32 783.20-15.96Q781.64-17.60 779.16-17.60L779.16-17.60Q776.64-17.60 774.88-15.92L774.88-15.92Q773.12-14.20 773.12-11.52L773.12-11.52L773.12 0L770.12 0L770.12-20Z M812.36 0L812.36-3.20Q809.96 0.32 805.20 0.32L805.20 0.32Q800.88 0.32 798.16-2.68L798.16-2.68Q795.52-5.64 795.52-10L795.52-10Q795.52-14.36 798.16-17.32L798.16-17.32Q800.88-20.32 805.40-20.32Q809.92-20.32 812.36-16.76L812.36-16.76L812.36-20L815.36-20L815.36 0L812.36 0ZM805.60-2.40L805.60-2.40Q808.84-2.40 810.72-4.64L810.72-4.64Q812.52-6.76 812.52-10L812.52-10Q812.52-13.24 810.72-15.36L810.72-15.36Q808.84-17.60 805.60-17.60L805.60-17.60Q802.40-17.60 800.40-15.36L800.40-15.36Q798.52-13.24 798.52-10L798.52-10Q798.52-6.76 800.40-4.64L800.40-4.64Q802.40-2.40 805.60-2.40Z M827.56-28L827.56 0L824.56 0L824.56-28L827.56-28Z M836.76 0L836.76-20L839.76-20L839.76 0L836.76 0ZM836.64-27.28L839.88-27.28L839.88-23.36L836.64-23.36L836.64-27.28Z M863.76-14.64L860.72-14.64Q860.32-17.76 855.70-17.76Q851.08-17.76 851.08-14.88L851.08-14.88Q851.08-13.68 852.06-13.06Q853.04-12.44 854.52-12.04Q856.00-11.64 857.74-11.30Q859.48-10.96 860.96-10.34Q862.44-9.72 863.42-8.64Q864.40-7.56 864.40-5.68L864.40-5.68Q864.40-2.76 862.20-1.22Q860.00 0.32 856.24 0.32L856.24 0.32Q852.24 0.32 849.88-1.68L849.88-1.68Q847.72-3.44 847.56-6.28L847.56-6.28L850.68-6.28Q850.96-3.52 853.80-2.56L853.80-2.56Q854.84-2.24 855.86-2.24Q856.88-2.24 857.76-2.36Q858.64-2.48 859.48-2.80L859.48-2.80Q861.40-3.56 861.40-5.40L861.40-5.40Q861.40-6.64 860.42-7.30Q859.44-7.96 857.96-8.38Q856.48-8.80 854.74-9.14Q853.00-9.48 851.52-10.08Q850.04-10.68 849.06-11.72Q848.08-12.76 848.08-14.60L848.08-14.60Q848.08-17.32 850.06-18.82Q852.04-20.32 855.92-20.32L855.92-20.32Q859.60-20.32 861.72-18.56L861.72-18.56Q863.48-17.08 863.76-14.64L863.76-14.64Z M875.24-20L875.24-16.96Q877.24-20.32 881.32-20.32L881.32-20.32Q883.32-20.32 885.02-19.26Q886.72-18.20 887.68-16.28L887.68-16.28Q889.04-18.80 891.92-19.88L891.92-19.88Q893.08-20.32 894.54-20.32Q896.00-20.32 897.34-19.74Q898.68-19.16 899.72-18.08L899.72-18.08Q901.96-15.68 901.96-12.08L901.96-12.08L901.96 0L898.96 0L898.96-12Q898.96-14.48 897.56-16.08L897.56-16.08Q896.16-17.60 894.00-17.60L894.00-17.60Q891.72-17.60 890.20-16.12L890.20-16.12Q888.60-14.60 888.60-11.96L888.60-11.96L888.60 0L885.60 0L885.60-12Q885.60-14.48 884.20-16.08L884.20-16.08Q882.80-17.60 880.64-17.60L880.64-17.60Q878.36-17.60 876.84-16.12L876.84-16.12Q875.24-14.60 875.24-11.96L875.24-11.96L875.24 0L872.24 0L872.24-20L875.24-20Z M919.64-20.32L919.64-20.32Q924.12-20.32 926.92-17.32L926.92-17.32Q929.56-14.44 929.56-10L929.56-10Q929.56-5.56 926.92-2.68L926.92-2.68Q924.12 0.32 919.64 0.32L919.64 0.32Q915.16 0.32 912.36-2.68L912.36-2.68Q909.72-5.56 909.72-10L909.72-10Q909.72-14.44 912.36-17.32L912.36-17.32Q915.16-20.32 919.64-20.32ZM919.64-2.40L919.64-2.40Q922.88-2.40 924.76-4.64L924.76-4.64Q926.56-6.76 926.56-10L926.56-10Q926.56-13.24 924.76-15.36L924.76-15.36Q922.88-17.60 919.64-17.60L919.64-17.60Q916.40-17.60 914.52-15.36L914.52-15.36Q912.72-13.24 912.72-10L912.72-10Q912.72-6.76 914.52-4.64L914.52-4.64Q916.40-2.40 919.64-2.40Z"/></g>
</svg>
</g><g opacity="1" transform="rotate(0 86.0929 348.3379)">
<svg width="388.8138" height="34" x="86.0929" y="348.3379" version="1.1" preserveAspectRatio="none" viewBox="1.32 -33.2 384.24 33.60000000000001">
  <g transform="matrix(1 0 0 1 0 0)" class="companyName"><path id="id-D6z1nYkh15" d="M16.72 0L1.32 0L1.32-1.60Q2.68-1.64 3.50-1.84Q4.32-2.04 4.78-2.52Q5.24-3 5.40-3.88Q5.56-4.76 5.56-6.16L5.56-6.16L5.56-24.64Q5.56-26.04 5.44-26.90Q5.32-27.76 4.94-28.26Q4.56-28.76 3.90-28.94Q3.24-29.12 2.16-29.20L2.16-29.20L2.16-30.80L15-30.80Q21.04-30.80 24.30-28.86Q27.56-26.92 27.56-23.32L27.56-23.32Q27.56-18.56 20.72-16.60L20.72-16.60L20.72-16.44Q22.92-16.44 24.70-15.82Q26.48-15.20 27.72-14.08Q28.96-12.96 29.64-11.44Q30.32-9.92 30.32-8.12L30.32-8.12Q30.32-6.08 29.34-4.56Q28.36-3.04 26.52-2L26.52-2Q22.96 0 16.72 0L16.72 0ZM17-2.44L17-2.44Q23.44-2.44 23.44-8.24L23.44-8.24Q23.44-11.80 21.12-13.44L21.12-13.44Q19.92-14.28 18.02-14.64Q16.12-15 13.36-15L13.36-15L11.44-15L11.44-7Q11.44-4.52 12.72-3.48Q14-2.44 17-2.44ZM11.44-17.40L13.80-17.40Q15.60-17.40 16.92-17.74Q18.24-18.08 19.16-18.72L19.16-18.72Q21.08-20.04 21.08-22.84L21.08-22.84Q21.08-25.76 19.64-27.06Q18.20-28.36 15-28.36L15-28.36L12.16-28.36Q11.44-28.36 11.44-27.68L11.44-27.68L11.44-17.40Z M44.20-8.12L44.20-6.20Q44.20-4.64 44.34-3.74Q44.48-2.84 44.92-2.36Q45.36-1.88 46.20-1.74Q47.04-1.60 48.44-1.60L48.44-1.60L48.44 0L35.08 0L35.08-1.60Q36.28-1.68 37.00-1.84Q37.72-2 38.08-2.48Q38.44-2.96 38.54-3.86Q38.64-4.76 38.64-6.28L38.64-6.28L38.64-11.16Q38.64-13.64 38.52-15.12Q38.40-16.60 38.00-17.40Q37.60-18.20 36.86-18.46Q36.12-18.72 34.92-18.72L34.92-18.72L34.92-20.12L42.92-21.60L43.56-17L43.72-17Q44.80-19.12 46.56-20.36Q48.32-21.60 50.28-21.60L50.28-21.60Q51.80-21.60 52.76-20.84Q53.72-20.08 53.72-18.92L53.72-18.92Q53.72-17.64 52.98-16.76Q52.24-15.88 50.96-15.88L50.96-15.88Q50.36-15.88 49.88-16.12Q49.40-16.36 49.02-16.66Q48.64-16.96 48.26-17.22Q47.88-17.48 47.48-17.48L47.48-17.48Q46.72-17.48 46.04-16.48Q45.36-15.48 44.92-13.80L44.92-13.80Q44.60-12.60 44.40-11.10Q44.20-9.60 44.20-8.12L44.20-8.12Z M69.56-7.60L69.56-11.40Q66.20-9.88 64.50-8.58Q62.80-7.28 62.80-5.88L62.80-5.88Q62.80-4.72 63.44-4.04Q64.08-3.36 65.04-3.36L65.04-3.36Q66-3.36 66.84-3.70Q67.68-4.04 68.28-4.60Q68.88-5.16 69.22-5.94Q69.56-6.72 69.56-7.60L69.56-7.60ZM63.92-11.08L69.56-13.52L69.56-15.20Q69.56-17.52 68.74-18.58Q67.92-19.64 66.20-19.64L66.20-19.64Q65.04-19.64 64.44-19.02Q63.84-18.40 63.32-16.96L63.32-16.96Q62.96-15.96 62.30-15.40Q61.64-14.84 60.48-14.84L60.48-14.84Q59.36-14.84 58.76-15.52Q58.16-16.20 58.16-17.44L58.16-17.44Q58.16-19.36 60.26-20.48Q62.36-21.60 66.60-21.60L66.60-21.60Q71.08-21.60 73-19.98Q74.92-18.36 74.92-14.56L74.92-14.56L74.92-5.80Q74.92-2.40 76.28-2.40L76.28-2.40Q77.04-2.40 77.68-2.92L77.68-2.92L78.28-1.76Q77.72-0.76 76.54-0.18Q75.36 0.40 73.88 0.40L73.88 0.40Q72.04 0.40 71.08-0.72Q70.12-1.84 70.12-3.88L70.12-3.88L69.92-3.88Q68.76-1.80 66.92-0.72Q65.08 0.36 62.72 0.36L62.72 0.36Q60.20 0.36 58.68-1.06Q57.16-2.48 57.16-4.76L57.16-4.76Q57.16-6.52 58.72-8.06Q60.28-9.60 63.92-11.08L63.92-11.08Z M91.04-12.04L91.04-6.52Q91.04-4.88 91.14-3.94Q91.24-3 91.58-2.50Q91.92-2 92.62-1.84Q93.32-1.68 94.52-1.60L94.52-1.60L94.52 0L81.92 0L81.92-1.60Q83.08-1.68 83.78-1.84Q84.48-2 84.86-2.48Q85.24-2.96 85.36-3.84Q85.48-4.72 85.48-6.24L85.48-6.24L85.48-11.24Q85.48-13.60 85.40-15.06Q85.32-16.52 85.20-17.04L85.20-17.04Q85.08-17.56 84.88-17.90Q84.68-18.24 84.28-18.42Q83.88-18.60 83.28-18.66Q82.68-18.72 81.76-18.72L81.76-18.72L81.76-20.08L89.48-21.60L90.00-18.08L90.16-18.08Q91.48-19.76 93.28-20.68Q95.08-21.60 97.24-21.60L97.24-21.60Q99.80-21.60 101.38-20.90Q102.96-20.20 104.20-18.56L104.20-18.56Q104.88-17.64 105.40-16.18Q105.92-14.72 105.92-12.16L105.92-12.16L105.92-6.52Q105.92-4.88 106.02-3.94Q106.12-3 106.46-2.50Q106.80-2 107.48-1.84Q108.16-1.68 109.32-1.60L109.32-1.60L109.32 0L96.80 0L96.80-1.60Q98-1.64 98.70-1.82Q99.40-2 99.76-2.48Q100.12-2.96 100.24-3.86Q100.36-4.76 100.36-6.24L100.36-6.24L100.36-11.68Q100.36-13.72 100.12-15.12Q99.88-16.52 99.34-17.38Q98.80-18.24 97.92-18.62Q97.04-19 95.72-19L95.72-19Q94.44-19 93.52-18.28Q92.60-17.56 91.92-16.28L91.92-16.28Q91.56-15.56 91.30-14.42Q91.04-13.28 91.04-12.04L91.04-12.04Z M131.08 0.40L131.08-2.56L130.92-2.56Q128.16 0.40 123.76 0.40L123.76 0.40Q121.48 0.40 119.58-0.40Q117.68-1.20 116.30-2.64Q114.92-4.08 114.16-6.06Q113.40-8.04 113.40-10.44L113.40-10.44Q113.40-12.84 114.18-14.88Q114.96-16.92 116.30-18.42Q117.64-19.92 119.50-20.76Q121.36-21.60 123.52-21.60L123.52-21.60Q125.52-21.60 127.06-21Q128.60-20.40 129.76-18.96L129.76-18.96L129.92-18.96L129.92-22.36Q129.92-24.72 129.86-26.42Q129.80-28.12 129.68-28.64L129.68-28.64Q129.48-29.48 128.46-29.86Q127.44-30.24 125.32-30.24L125.32-30.24L125.32-31.60L135.44-33.20L135.44-10.32Q135.44-7.32 135.50-5.70Q135.56-4.08 135.72-3.24L135.72-3.24Q135.80-2.72 135.96-2.40Q136.12-2.08 136.44-1.90Q136.76-1.72 137.30-1.66Q137.84-1.60 138.68-1.60L138.68-1.60L138.68-0.04L131.08 0.40ZM129.84-9.92L129.84-11.48Q129.84-13 129.52-14.30Q129.20-15.60 128.56-16.60L128.56-16.60Q127.84-17.76 126.72-18.36Q125.60-18.96 124.32-18.96L124.32-18.96Q121.96-18.96 120.72-16.80Q119.48-14.64 119.48-10.52L119.48-10.52Q119.48-6.36 120.72-4.12Q121.96-1.88 124.28-1.88L124.28-1.88Q125.60-1.88 126.80-2.56Q128.00-3.24 128.76-4.40L128.76-4.40Q129.32-5.28 129.58-6.58Q129.84-7.88 129.84-9.92L129.84-9.92Z M155.36-7.60L155.36-11.40Q152-9.88 150.30-8.58Q148.60-7.28 148.60-5.88L148.60-5.88Q148.60-4.72 149.24-4.04Q149.88-3.36 150.84-3.36L150.84-3.36Q151.80-3.36 152.64-3.70Q153.48-4.04 154.08-4.60Q154.68-5.16 155.02-5.94Q155.36-6.72 155.36-7.60L155.36-7.60ZM149.72-11.08L155.36-13.52L155.36-15.20Q155.36-17.52 154.54-18.58Q153.72-19.64 152-19.64L152-19.64Q150.84-19.64 150.24-19.02Q149.64-18.40 149.12-16.96L149.12-16.96Q148.76-15.96 148.10-15.40Q147.44-14.84 146.28-14.84L146.28-14.84Q145.16-14.84 144.56-15.52Q143.96-16.20 143.96-17.44L143.96-17.44Q143.96-19.36 146.06-20.48Q148.16-21.60 152.40-21.60L152.40-21.60Q156.88-21.60 158.80-19.98Q160.72-18.36 160.72-14.56L160.72-14.56L160.72-5.80Q160.72-2.40 162.08-2.40L162.08-2.40Q162.84-2.40 163.48-2.92L163.48-2.92L164.08-1.76Q163.52-0.76 162.34-0.18Q161.16 0.40 159.68 0.40L159.68 0.40Q157.84 0.40 156.88-0.72Q155.92-1.84 155.92-3.88L155.92-3.88L155.72-3.88Q154.56-1.80 152.72-0.72Q150.88 0.36 148.52 0.36L148.52 0.36Q146 0.36 144.48-1.06Q142.96-2.48 142.96-4.76L142.96-4.76Q142.96-6.52 144.52-8.06Q146.08-9.60 149.72-11.08L149.72-11.08ZM146.96-26.40L145.12-26.40Q145.52-28.76 146.84-30.26Q148.16-31.76 149.88-31.76L149.88-31.76Q150.16-31.76 150.46-31.72Q150.76-31.68 151.16-31.56Q151.56-31.44 152.08-31.26Q152.60-31.08 153.36-30.80L153.36-30.80Q154.60-30.32 155.28-30.12Q155.96-29.92 156.52-29.92L156.52-29.92Q157.28-29.92 157.72-30.30Q158.16-30.68 158.48-31.60L158.48-31.60L160.28-31.60Q160.12-30.56 159.64-29.44Q159.16-28.32 158.52-27.52L158.52-27.52Q157.32-26.08 155.60-26.08L155.60-26.08Q154.88-26.08 154.12-26.30Q153.36-26.52 152.20-27.08L152.20-27.08Q151.28-27.52 150.34-27.76Q149.40-28 148.72-28L148.72-28Q148.04-28 147.66-27.66Q147.28-27.32 146.96-26.40L146.96-26.40Z M179.68-21.60L179.68-21.60Q182.08-21.60 184.22-20.78Q186.36-19.96 187.98-18.52Q189.60-17.08 190.54-15.10Q191.48-13.12 191.48-10.76L191.48-10.76Q191.48-8.32 190.54-6.28Q189.60-4.24 187.98-2.76Q186.36-1.28 184.22-0.44Q182.08 0.40 179.68 0.40L179.68 0.40Q177.32 0.40 175.20-0.42Q173.08-1.24 171.48-2.72Q169.88-4.20 168.96-6.26Q168.04-8.32 168.04-10.76L168.04-10.76Q168.04-13.12 168.96-15.12Q169.88-17.12 171.48-18.56Q173.08-20 175.20-20.80Q177.32-21.60 179.68-21.60ZM179.68-19.28L179.68-19.28Q178.48-19.28 177.48-18.66Q176.48-18.04 175.78-16.92Q175.08-15.80 174.70-14.22Q174.32-12.64 174.32-10.72L174.32-10.72Q174.32-8.72 174.70-7.12Q175.08-5.52 175.78-4.40Q176.48-3.28 177.46-2.66Q178.44-2.04 179.68-2.04L179.68-2.04Q180.92-2.04 181.94-2.66Q182.96-3.28 183.68-4.42Q184.40-5.56 184.80-7.16Q185.20-8.76 185.20-10.72L185.20-10.72Q185.20-12.64 184.80-14.20Q184.40-15.76 183.68-16.90Q182.96-18.04 181.94-18.66Q180.92-19.28 179.68-19.28Z M223.32-1.60L223.32 0L209.04 0L209.04-1.60Q210.40-1.64 211.22-1.86Q212.04-2.08 212.48-2.68Q212.92-3.28 213.08-4.38Q213.24-5.48 213.24-7.36L213.24-7.36L213.24-23.44Q213.24-25.12 213.10-26.22Q212.96-27.32 212.56-27.96Q212.16-28.60 211.42-28.86Q210.68-29.12 209.44-29.20L209.44-29.20L209.44-30.80L222.92-30.80L222.92-29.20Q221.68-29.12 220.94-28.86Q220.20-28.60 219.80-27.96Q219.40-27.32 219.26-26.22Q219.12-25.12 219.12-23.44L219.12-23.44L219.12-7.36Q219.12-5.48 219.26-4.38Q219.40-3.28 219.86-2.68Q220.32-2.08 221.14-1.86Q221.96-1.64 223.32-1.60L223.32-1.60Z M237.08-11.88L237.08-6.60Q237.08-4.92 237.16-3.96Q237.24-3 237.60-2.50Q237.96-2 238.64-1.84Q239.32-1.68 240.52-1.60L240.52-1.60L240.52 0L227.88 0L227.88-1.60Q229.08-1.68 229.80-1.84Q230.52-2 230.88-2.48Q231.24-2.96 231.36-3.86Q231.48-4.76 231.48-6.28L231.48-6.28L231.48-11.24Q231.48-13.52 231.42-15.04Q231.36-16.56 231.20-17.12L231.20-17.12Q231.08-17.64 230.90-17.94Q230.72-18.24 230.34-18.42Q229.96-18.60 229.36-18.66Q228.76-18.72 227.80-18.72L227.80-18.72L227.80-20.08L235.52-21.60L236.00-18.12L236.24-18.12Q237.92-20 239.62-20.80Q241.32-21.60 243.56-21.60L243.56-21.60Q246.20-21.60 247.92-20.68Q249.64-19.76 250.52-18.04L250.52-18.04L250.68-18.04Q252.12-19.72 254.12-20.66Q256.12-21.60 258.40-21.60L258.40-21.60Q260.80-21.60 262.58-21Q264.36-20.40 265.36-19.28L265.36-19.28Q266.16-18.36 266.54-16.88Q266.92-15.40 266.92-12.76L266.92-12.76L266.92-6.60Q266.92-4.96 267.02-4Q267.12-3.04 267.48-2.52Q267.84-2 268.52-1.84Q269.20-1.68 270.40-1.60L270.40-1.60L270.40 0L257.76 0L257.76-1.60Q258.96-1.64 259.66-1.82Q260.36-2 260.74-2.50Q261.12-3 261.22-3.88Q261.32-4.76 261.32-6.28L261.32-6.28L261.32-11.52Q261.32-13.60 261.08-15.04Q260.84-16.48 260.32-17.36Q259.80-18.24 258.94-18.62Q258.08-19 256.84-19L256.84-19Q255.44-19 254.54-18.32Q253.64-17.64 253.04-16.56L253.04-16.56Q252.00-14.68 252.00-11.88L252.00-11.88L252.00-6.60Q252.00-4.96 252.08-4Q252.16-3.04 252.52-2.52Q252.88-2 253.58-1.84Q254.28-1.68 255.52-1.60L255.52-1.60L255.52 0L242.84 0L242.84-1.60Q244.04-1.68 244.74-1.84Q245.44-2 245.82-2.48Q246.20-2.96 246.30-3.86Q246.40-4.76 246.40-6.28L246.40-6.28L246.40-11.52Q246.40-13.60 246.16-15.04Q245.92-16.48 245.38-17.36Q244.84-18.24 243.96-18.62Q243.08-19 241.76-19L241.76-19Q240.44-19 239.58-18.36Q238.72-17.72 238.16-16.64L238.16-16.64Q237.64-15.68 237.36-14.44Q237.08-13.20 237.08-11.88L237.08-11.88Z M286.12-21.60L286.12-21.60Q288.52-21.60 290.66-20.78Q292.80-19.96 294.42-18.52Q296.04-17.08 296.98-15.10Q297.92-13.12 297.92-10.76L297.92-10.76Q297.92-8.32 296.98-6.28Q296.04-4.24 294.42-2.76Q292.80-1.28 290.66-0.44Q288.52 0.40 286.12 0.40L286.12 0.40Q283.76 0.40 281.64-0.42Q279.52-1.24 277.92-2.72Q276.32-4.20 275.40-6.26Q274.48-8.32 274.48-10.76L274.48-10.76Q274.48-13.12 275.40-15.12Q276.32-17.12 277.92-18.56Q279.52-20 281.64-20.80Q283.76-21.60 286.12-21.60ZM286.12-19.28L286.12-19.28Q284.92-19.28 283.92-18.66Q282.92-18.04 282.22-16.92Q281.52-15.80 281.14-14.22Q280.76-12.64 280.76-10.72L280.76-10.72Q280.76-8.72 281.14-7.12Q281.52-5.52 282.22-4.40Q282.92-3.28 283.90-2.66Q284.88-2.04 286.12-2.04L286.12-2.04Q287.36-2.04 288.38-2.66Q289.40-3.28 290.12-4.42Q290.84-5.56 291.24-7.16Q291.64-8.76 291.64-10.72L291.64-10.72Q291.64-12.64 291.24-14.20Q290.84-15.76 290.12-16.90Q289.40-18.04 288.38-18.66Q287.36-19.28 286.12-19.28ZM284.52-26.04L282.16-26.04L287.24-30.80Q288.20-31.72 289.02-32.12Q289.84-32.52 290.64-32.52L290.64-32.52Q291.64-32.52 292.24-32.04Q292.84-31.56 292.84-30.72L292.84-30.72Q292.84-30.04 292.10-29.52Q291.36-29 290.08-28.44L290.08-28.44L284.52-26.04Z M310.76 0.40L304.44-16.04Q304-17.20 303.60-17.90Q303.20-18.60 302.78-18.98Q302.36-19.36 301.86-19.48Q301.36-19.60 300.68-19.60L300.68-19.60L300.68-21.20L312.64-21.20L312.64-19.60Q311.64-19.60 311.06-19.52Q310.48-19.44 310.18-19.28Q309.88-19.12 309.80-18.86Q309.72-18.60 309.72-18.28L309.72-18.28Q309.72-17.76 309.92-17.08Q310.12-16.40 310.40-15.72L310.40-15.72L314.20-5.24L314.36-5.24L318.64-15.68Q318.92-16.36 319.08-16.90Q319.24-17.44 319.24-17.88L319.24-17.88Q319.24-18.76 318.64-19.16Q318.04-19.56 316.52-19.60L316.52-19.60L316.52-21.20L325.36-21.20L325.36-19.60Q324.28-19.60 323.50-19.04Q322.72-18.48 321.88-16.56L321.88-16.56L314.40 0.40L310.76 0.40Z M347-5.12L348.12-3.72Q344.48 0.40 339.04 0.40L339.04 0.40Q336.56 0.40 334.54-0.38Q332.52-1.16 331.08-2.58Q329.64-4 328.84-5.96Q328.04-7.92 328.04-10.32L328.04-10.32Q328.04-12.80 328.88-14.86Q329.72-16.92 331.26-18.42Q332.80-19.92 334.90-20.76Q337-21.60 339.52-21.60L339.52-21.60Q343.76-21.60 346.12-19.32Q348.48-17.04 348.48-12.92L348.48-12.92Q348.48-12.28 348.28-12.14Q348.08-12 347.16-12L347.16-12L334.28-12Q334.12-11.64 334.12-10.68L334.12-10.68Q334.12-6.76 335.82-4.48Q337.52-2.20 340.44-2.20L340.44-2.20Q342.12-2.20 343.78-2.96Q345.44-3.72 347-5.12L347-5.12ZM334.56-14.24L340.36-14.24Q341.96-14.24 342.42-14.42Q342.88-14.60 342.88-15.28L342.88-15.28Q342.88-17.04 341.88-18.16Q340.88-19.28 339.36-19.28L339.36-19.28Q337.64-19.28 336.30-17.86Q334.96-16.44 334.56-14.24L334.56-14.24Z M362.20-21.60L362.20-6.56Q362.20-4.96 362.32-4Q362.44-3.04 362.80-2.52Q363.16-2 363.84-1.82Q364.52-1.64 365.68-1.60L365.68-1.60L365.68 0L353.08 0L353.08-1.60Q354.20-1.64 354.90-1.86Q355.60-2.08 355.98-2.58Q356.36-3.08 356.50-3.98Q356.64-4.88 356.64-6.28L356.64-6.28L356.64-11.20Q356.64-13.52 356.56-15.02Q356.48-16.52 356.36-17.08L356.36-17.08Q356.16-18.08 355.46-18.40Q354.76-18.72 352.92-18.72L352.92-18.72L352.92-20.08L362.20-21.60ZM356.32-30.08L356.32-30.08Q356.32-31.40 357.22-32.30Q358.12-33.20 359.40-33.20L359.40-33.20Q360.72-33.20 361.62-32.30Q362.52-31.40 362.52-30.08L362.52-30.08Q362.52-28.80 361.62-27.90Q360.72-27 359.40-27L359.40-27Q358.12-27 357.22-27.90Q356.32-28.80 356.32-30.08Z M372.64-1.40L371.76 0L370.52 0L370.52-7.28L372.20-7.28Q372.88-4.40 374.16-3.08Q375.44-1.76 377.48-1.76L377.48-1.76Q378.96-1.76 379.78-2.38Q380.60-3 380.60-4.08L380.60-4.08Q380.60-5.20 379.60-6.26Q378.60-7.32 376.36-8.52L376.36-8.52Q373.32-10.16 372.00-11.78Q370.68-13.40 370.68-15.44L370.68-15.44Q370.68-16.76 371.18-17.90Q371.68-19.04 372.54-19.88Q373.40-20.72 374.60-21.18Q375.80-21.64 377.20-21.64L377.20-21.64Q378.44-21.64 379.66-21.28Q380.88-20.92 381.80-20.28L381.80-20.28L382.52-21.24L383.56-21.24L383.56-15.20L382.00-15.20Q381.08-17.48 380.10-18.48Q379.12-19.48 377.72-19.48L377.72-19.48Q376.60-19.48 375.94-18.88Q375.28-18.28 375.28-17.28L375.28-17.28Q375.28-16.16 376.26-15.16Q377.24-14.16 379.52-12.96L379.52-12.96Q381.12-12.08 382.28-11.24Q383.44-10.40 384.16-9.54Q384.88-8.68 385.22-7.74Q385.56-6.80 385.56-5.72L385.56-5.72Q385.56-4.32 385.04-3.20Q384.52-2.08 383.56-1.28Q382.60-0.48 381.26-0.04Q379.92 0.40 378.28 0.40L378.28 0.40Q376.56 0.40 375.08-0.06Q373.60-0.52 372.64-1.40L372.64-1.40Z"/></g>
</svg>
</g><g opacity="1" transform="rotate(0 183.2964 196.1828)">
<svg width="194.4069" height="122.1551" x="183.2964" y="196.1828" version="1.1" preserveAspectRatio="none" viewBox="19.999998092651367 49.73200225830078 160.00003051757812 100.5356216430664">
  <g transform="matrix(1 0 0 1 0 0)"><g><path d="M157.952 101.613c.915.48 1.711 1.138 2.296 1.993.296-2.761-1.436-6.074-3.303-8.095-4.36-4.722-11.576-5.585-16.572-9.629 2.065 6.534 7.315 11.986 13.769 14.298 1.278.458 2.606.802 3.81 1.433z" data-color="1" class="icon1"></path><path d="M152.176 71.871c1.052.147 1.386.042 2.355-.047 1.728-.155.689-3.019.411-4.717-.509-3.1-2.85-6.314-4.92-8.598-3.304-3.645-7.531-6.315-11.791-8.777-.355 4.383 1.221 8.698 3.161 12.649 1.655 3.367 5.492 8.751 10.784 9.49z" data-color="1" class="icon1"></path><path d="M141.583 78.296c1.536 1.275 2.993 2.681 4.75 3.63 1.528.825 6.584 2.78 8.204 1.62 2.094-1.499-2.379-4.927-3.431-6.033-1.03-1.085-2.079-2.159-3.262-3.074-4.372-3.387-10.106-4.31-15.572-5.124 2.038 3.836 5.968 6.203 9.311 8.981z" data-color="1" class="icon1"></path><path d="M142.534 131.285c1.001-2.277 1.202-4.039.661-6.469a25.495 25.495 0 00-.561-2.083c-.483-1.545-1.093-3.055-1.734-4.537-.174-.403-2.577 3.324-2.722 3.595-.361.677-.704 1.376-.844 2.13-.787 4.235 3.273 7.999 2.72 12.331a56.48 56.48 0 002.48-4.967z" data-color="1" class="icon1"></path><path d="M145.46 100.606c-.01.617-.064 1.327-.139 1.981-.562 4.85.624 9.957 2.58 14.393.689 1.563 2.635 6.553 4.316 5.557 1.913-1.131 1.747-5.6 1.383-7.357-.577-2.783-2.088-5.28-3.703-7.622-1.564-2.266-3.232-4.465-4.437-6.952z" data-color="1" class="icon1"></path><path d="M164.905 101.245c-.037-.156 3.158-2.249 3.447-2.517 2.445-2.271 5.33-5.197 5.971-8.597.291-1.543.097-3.1.005-4.655-.053-.884-.073-1.767.047-2.646.321-2.339 1.322-4.536.76-6.944-2.602.416-6.239 8.561-7.592 10.861-1.406 2.389-2.776 4.904-3.055 7.664-.23 2.282-.114 4.603.417 6.834z" data-color="1" class="icon1"></path><path d="M166.803 73.35c.403-1.803.168-3.681-.068-5.515-.407-3.157-.225-7.503-1.476-10.404-1.111.874-.449 2.733-.454 4.037-.011 2.817-2.562 4.836-4.198 7.126-2.69 3.765-2.947 9.117-.632 13.135 2.917-2.247 6.025-4.786 6.828-8.379z" data-color="1" class="icon1"></path><path d="M173.192 107.356c-5.122 2.448-9.47 6.566-11.997 11.664 3.739-1.893 8.873-.581 11.895-3.483 1.059-1.017 1.663-2.403 2.44-3.648.804-1.289 4.47-5.909 4.47-5.909s-5.581.79-6.808 1.376z" data-color="1" class="icon1"></path><path d="M159.178 129.464c-3.605 1.571-6.654 4.241-9.078 7.336 3.551.612 7.197.653 10.759.122 2.13-.318 4.303-.875 5.986-2.216 1.278-1.019 2.202-2.438 3.525-3.398 1.152-.836 2.504-1.172 3.888-1.307-1.199-.373-2.375-.818-3.567-1.229-3.723-1.285-7.909-.879-11.513.692z" data-color="1" class="icon1"></path><path d="M139.16 141.828c3.249-2.114 6.042-4.812 8.528-7.671 2.861-3.305 5.359-6.823 7.897-10.313 2.507-3.509 4.93-7.219 6.317-11.413 1.449-4.195 1.352-8.746.561-12.992-.8-4.273-2.059-8.413-3.462-12.499a105.078 105.078 0 00-5.03-11.927 104.99 104.99 0 014.699 12.037c1.288 4.103 2.431 8.276 3.105 12.502.664 4.213.626 8.577-.863 12.538-1.436 3.979-3.875 7.52-6.452 10.927-2.617 3.403-5.211 6.846-8.076 9.978-2.866 3.123-6.055 5.949-9.721 7.906-3.67 1.959-7.783 3.072-11.929 4.24l-7.047 1.751.798 2.677 6.947-2.085c4.096-1.278 8.349-2.535 12.247-4.748.32-.182.628-.378.939-.571 1.142 4.62 2.983 5.496 6.171 7.119 1.413.719 7.425 1.141 8.658.176a23.841 23.841 0 01-6.377-3.785c-2.061-1.691-5.917-3.21-7.91-3.847z" data-color="1" class="icon1"></path><path d="M62.658 124.176c-.14-.754-.483-1.453-.843-2.13-.145-.272-2.546-4-2.721-3.597-.642 1.482-1.252 2.992-1.736 4.536a25.588 25.588 0 00-.562 2.082c-.542 2.429-.342 4.192.658 6.469a56.917 56.917 0 002.478 4.969c-.551-4.331 3.511-8.093 2.726-12.329z" data-color="1" class="icon1"></path><path d="M40.035 81.972c2.317-4.016 2.062-9.368-.626-13.135-1.635-2.291-4.185-4.311-4.194-7.128-.004-1.304.659-3.163-.452-4.037-1.252 2.9-1.073 7.246-1.481 10.403-.237 1.834-.472 3.712-.07 5.515.801 3.594 3.909 6.134 6.823 8.382z" data-color="1" class="icon1"></path><path d="M38.799 119.264c-2.525-5.1-6.871-9.22-11.991-11.67-1.228-.587-6.808-1.379-6.808-1.379s3.664 4.621 4.468 5.911c.777 1.246 1.38 2.632 2.438 3.649 3.02 2.903 8.155 1.594 11.893 3.489z" data-color="1" class="icon1"></path><path d="M40.811 129.708c-3.604-1.573-7.79-1.981-11.513-.697-1.192.41-2.368.855-3.568 1.228 1.384.135 2.736.472 3.887 1.309 1.323.96 2.247 2.38 3.524 3.399 1.682 1.342 3.855 1.9 5.985 2.219 3.562.533 7.209.494 10.759-.117-2.421-3.096-5.47-5.768-9.074-7.341z" data-color="1" class="icon1"></path><path d="M63.321 141.155c-3.666-1.959-6.854-4.786-9.718-7.91-2.863-3.134-5.455-6.578-8.071-9.982-2.575-3.408-5.013-6.95-6.447-10.93-1.488-3.962-1.523-8.326-.857-12.538.676-4.226 1.821-8.399 3.111-12.5a104.99 104.99 0 014.704-12.035 105.064 105.064 0 00-5.035 11.924c-1.405 4.086-2.666 8.225-3.468 12.498-.792 4.245-.891 8.796.555 12.992 1.385 4.195 3.807 7.906 6.312 11.416 2.536 3.491 5.033 7.01 7.892 10.317 2.485 2.861 5.276 5.56 8.524 7.675-1.993.635-5.851 2.153-7.912 3.839a23.826 23.826 0 01-6.378 3.782c1.232.966 7.245.547 8.658-.172 3.188-1.621 5.03-2.496 6.174-7.116.311.193.619.389.939.571 3.897 2.215 8.149 3.475 12.245 4.754l6.946 2.088.799-2.676-7.046-1.754c-4.145-1.168-8.258-2.283-11.927-4.243z" data-color="1" class="icon1"></path><path d="M25.682 85.714c-.093 1.554-.288 3.111.003 4.655.64 3.4 3.523 6.327 5.967 8.599.288.268 3.483 2.363 3.446 2.519.533-2.231.649-4.553.421-6.833-.277-2.76-1.646-5.275-3.051-7.665-1.352-2.301-4.985-10.448-7.587-10.865-.563 2.408.437 4.605.756 6.945.118.878.098 1.761.045 2.645z" data-color="1" class="icon1"></path><path d="M50.103 107.807c-1.616 2.341-3.128 4.837-3.707 7.62-.365 1.756-.533 6.225 1.38 7.357 1.681.996 3.629-3.992 4.319-5.555 1.958-4.435 3.146-9.541 2.587-14.392a21.467 21.467 0 01-.139-1.981c-1.207 2.487-2.876 4.685-4.44 6.951z" data-color="1" class="icon1"></path><path d="M43.061 95.756c-1.868 2.02-3.601 5.332-3.307 8.093.585-.856 1.382-1.513 2.297-1.992 1.204-.63 2.533-.974 3.811-1.431 6.455-2.309 11.708-7.758 13.776-14.291-4.999 4.041-12.214 4.901-16.577 9.621z" data-color="1" class="icon1"></path><path d="M67.745 69.571c-5.467.811-11.2 1.732-15.574 5.117-1.183.915-2.233 1.988-3.263 3.073-1.052 1.106-5.528 4.532-3.434 6.032 1.619 1.16 6.676-.793 8.204-1.616 1.758-.948 3.216-2.353 4.752-3.628 3.344-2.777 7.276-5.142 9.315-8.978z" data-color="1" class="icon1"></path><path d="M45.484 72.07c.969.089 1.303.194 2.355.048 5.293-.736 9.133-6.119 10.787-9.484 1.942-3.951 3.52-8.265 3.167-12.648-4.261 2.461-8.489 5.128-11.795 8.771-2.07 2.282-4.413 5.495-4.924 8.595-.277 1.698-1.318 4.562.41 4.718z" data-color="1" class="icon1"></path></g></g>
</svg>
</g></svg></svg>